<svg xmlns="http://www.w3.org/2000/svg" width="1280" height="640"><g><title>background</title><rect id="canvas_background" width="1282" height="642" x="-1" y="-1" fill="#fff"/><g id="canvasGrid" display="none"><rect id="svg_6" width="100%" height="100%" x="0" y="0" fill="url(#gridpattern)" stroke-width="0"/></g></g><g><title>Layer 1</title><rect id="svg_11" width="1282" height="641" x="-.5" y="-.547" fill="#fff" stroke="#000" stroke-opacity="null" stroke-width="0"/><rect id="svg_12" width="1289" height="50" x="-9.5" y="-.5" fill="#e5e5e5" fill-opacity=".9" stroke="#000" stroke-opacity="null" stroke-width="0"/><ellipse id="svg_10" cx="912.5" cy="374.723" fill="#005fbf" fill-opacity=".1" stroke="#000" stroke-width="0" rx="200" ry="197.872"/><ellipse id="svg_2" cx="495.5" cy="141.095" fill="#005fbf" fill-opacity=".65" stroke="#000" stroke-width="0" rx="69" ry="68.5"/><ellipse id="svg_1" cx="270" cy="270.095" fill="#005fbf" fill-opacity=".5" stroke="#000" stroke-width="0" rx="147.5" ry="145.5"/><ellipse id="svg_3" cx="659.5" cy="438.095" fill="#005fbf" fill-opacity=".3" stroke="#000" stroke-width="0" rx="141" ry="139.5"/><ellipse id="svg_5" cx="810.5" cy="207.595" fill="#005fbf" fill-opacity=".7" stroke="#000" stroke-width="0" rx="110" ry="109"/><ellipse id="svg_7" cx="959.5" cy="447.595" fill="#005fbf" fill-opacity=".45" stroke="#000" stroke-width="0" rx="80" ry="81"/><ellipse id="svg_8" cx="898" cy="362.595" fill="#005fbf" fill-opacity=".15" stroke="#000" stroke-width="0" rx="51.5" ry="50"/><ellipse id="svg_4" cx="508.5" cy="324.095" fill="#005fbf" fill-opacity=".2" stroke="#000" stroke-width="0" rx="155" ry="156.5"/><rect id="svg_13" width="519" height="109.376" x="378.5" y="251.595" fill="#fff" stroke="#000" stroke-opacity="null" stroke-width="0" rx="13"/><text id="svg_9" x="435.5" y="327.595" fill="#005fbf" stroke="#000" stroke-width="0" font-family="Helvetica, Arial, sans-serif" font-size="60" text-anchor="start" xml:space="preserve">vue-dock-menu</text><text id="svg_17" x="28.5" y="604.453" fill="#000" fill-opacity=".8" stroke="#000" stroke-opacity="null" stroke-width="0" font-family="Helvetica, Arial, sans-serif" font-size="40" text-anchor="start" xml:space="preserve">Dockable Menubar for Vue</text><rect id="svg_14" width="96" height="49" x="-.5" y="-.5" fill="#005fbf" fill-opacity=".3" stroke="#000" stroke-opacity="null" stroke-width="0"/><rect id="svg_15" width="96" height="49" x="95.5" y="-.5" fill="#005fbf" fill-opacity=".5" stroke="#000" stroke-opacity="null" stroke-width="0"/><rect id="svg_16" width="96" height="49" x="191.5" y="-.5" fill="#005fbf" fill-opacity=".7" stroke="#000" stroke-opacity="null" stroke-width="0"/><rect id="svg_18" width="96" height="49" x="287.5" y="-.5" fill="#005fbf" fill-opacity=".25" stroke="#000" stroke-opacity="null" stroke-width="0"/></g></svg>