<svg xmlns="http://www.w3.org/2000/svg" width="1280" height="640"><g><title>background</title><rect id="canvas_background" width="1282" height="642" x="-1" y="-1" fill="#fff"/><g id="canvasGrid" display="none"><rect id="svg_6" width="100%" height="100%" x="0" y="0" fill="url(#gridpattern)" stroke-width="0"/></g></g><g><title>Layer 1</title><rect id="svg_12" width="1289" height="50" x="-9.5" y="-.5" fill="#e5e5e5" fill-opacity=".9" stroke="#000" stroke-opacity="null" stroke-width="0"/><rect id="svg_14" width="96" height="49" x="-.5" y="-.5" fill="#005fbf" fill-opacity=".3" stroke="#000" stroke-opacity="null" stroke-width="0"/><rect id="svg_15" width="96" height="49" x="95.5" y="-.5" fill="#005fbf" fill-opacity=".5" stroke="#000" stroke-opacity="null" stroke-width="0"/><rect id="svg_16" width="96" height="49" x="191.5" y="-.5" fill="#005fbf" fill-opacity=".7" stroke="#000" stroke-opacity="null" stroke-width="0"/><rect id="svg_18" width="96" height="49" x="287.5" y="-.5" fill="#005fbf" fill-opacity=".25" stroke="#000" stroke-opacity="null" stroke-width="0"/><g id="svg_21" fill-opacity=".25" stroke="null"><path id="svg_20" fill="#005fbf" stroke="null" d="m405.26041,323.23323l6.15196,6.15196c0.6152,0.6152 1.23039,1.84559 0.6152,2.46078c0,0.6152 -0.6152,1.84559 -1.23039,2.46078l-19.07107,12.91911c-1.23039,0.6152 -2.46078,0.6152 -3.07598,0c-1.23039,-0.6152 -1.84559,-1.84559 -1.84559,-2.46078l0,-60.2892c0,-1.23039 0.6152,-2.46078 1.84559,-3.07598c8.61274,-3.07598 14.14951,-11.07353 14.14951,-19.68627c0,-11.68872 -9.22794,-20.91666 -20.91666,-20.91666s-20.30146,9.84313 -20.30146,20.91666c0,9.22794 5.53676,16.61029 14.14951,19.68627c1.23039,0.6152 1.84559,1.84559 1.84559,3.07598l0,59.674c0,1.23039 -0.6152,2.46078 -1.84559,2.46078c-1.23039,0.6152 -2.46078,0.6152 -3.07598,0l-19.07107,-12.91911c-0.6152,-0.6152 -1.23039,-1.23039 -1.23039,-2.46078c0,-0.6152 0,-1.84559 0.6152,-2.46078l6.15196,-6.15196l-22.14705,0l0,22.14705l6.15196,-6.15196c1.23039,-1.23039 3.07598,-1.23039 4.30637,0l31.99019,31.99019c0,0 0,0 0,0l3.07598,3.07598l3.07598,-3.07598c0,0 0,0 0,0l31.99019,-31.99019c1.23039,-1.23039 3.07598,-1.23039 4.30637,0l6.15196,6.15196l0,-22.14705l-22.76225,0l0,0.6152zm-22.76225,-49.21567c-6.76715,0 -12.30392,-5.53676 -12.30392,-12.30392s5.53676,-12.30392 12.30392,-12.30392c6.76715,0 12.30392,5.53676 12.30392,12.30392s-5.53676,12.30392 -12.30392,12.30392z"/></g><g id="svg_22"><text id="svg_9" x="462.172" y="295.638" fill="#005fbf" stroke="#000" stroke-width="0" font-family="Helvetica, Arial, sans-serif" font-size="60" text-anchor="start" xml:space="preserve">vue-dock-menu</text><text id="svg_17" x="462.166" y="365.496" fill="#000" fill-opacity=".8" stroke="#000" stroke-opacity="null" stroke-width="0" font-family="Helvetica, Arial, sans-serif" font-size="40" text-anchor="start" xml:space="preserve">Dockable Menubar for Vue</text></g></g></svg>